<svg xmlns="http://www.w3.org/2000/svg" width="17" height="14" fill="none" viewBox="0 0 17 14"><path fill="#fff" d="M0.116699 6.99023C0.116699 7.27246 0.241211 7.55469 0.44043 7.75391L5.89404 13.1992C6.10986 13.415 6.36719 13.5146 6.62451 13.5146C7.22217 13.5146 7.63721 13.0913 7.63721 12.5352C7.63721 12.228 7.5127 11.979 7.32178 11.7964L5.4707 9.92041L3.2793 7.91992L5.16357 8.02783H14.9502C15.5811 8.02783 16.0044 7.60449 16.0044 6.99023C16.0044 6.37598 15.5811 5.95264 14.9502 5.95264H5.16357L3.2793 6.06055L5.4707 4.06006L7.32178 2.18408C7.5127 1.99316 7.63721 1.74414 7.63721 1.44531C7.63721 0.880859 7.22217 0.45752 6.62451 0.45752C6.36719 0.45752 6.10986 0.56543 5.87744 0.797852L0.44043 6.22656C0.241211 6.42578 0.116699 6.70801 0.116699 6.99023Z"/></svg>