<svg xmlns="http://www.w3.org/2000/svg" width="18" height="18" fill="none" viewBox="0 0 18 18"><path fill="#fff" d="M9.14355 17.6646C13.8916 17.6646 17.8013 13.7549 17.8013 9.00684C17.8013 4.26709 13.8833 0.349121 9.13525 0.349121C4.39551 0.349121 0.48584 4.26709 0.48584 9.00684C0.48584 13.7549 4.39551 17.6646 9.14355 17.6646ZM6.4624 12.543C5.98926 12.543 5.61572 12.1694 5.61572 11.6797C5.61572 11.4639 5.70703 11.248 5.86475 11.0903L7.93164 9.02344L5.86475 6.94824C5.70703 6.79053 5.61572 6.57471 5.61572 6.35889C5.61572 5.87744 5.98926 5.50391 6.4624 5.50391C6.71973 5.50391 6.91064 5.58691 7.07666 5.75293L9.14355 7.81152L11.2271 5.74463C11.4014 5.57031 11.5923 5.49561 11.8413 5.49561C12.3145 5.49561 12.688 5.86914 12.688 6.34229C12.688 6.57471 12.6133 6.77393 12.439 6.94824L10.3638 9.02344L12.4307 11.082C12.5967 11.2397 12.6797 11.4556 12.6797 11.6797C12.6797 12.1694 12.3062 12.543 11.8247 12.543C11.5757 12.543 11.3599 12.46 11.2021 12.2939L9.14355 10.2354L7.09326 12.2939C6.92725 12.46 6.71973 12.543 6.4624 12.543Z"/></svg>